# xmcd
#
# Track frame offsets:
# 150
# 16116
# 30782
# 49572
# 63629
# 80441
# 95668
# 108408
# 121187
# 141684
# 157841
# 168728
# 184376
# 199199
# 215506
#
# Disc length: 3030 seconds
#
#
# Revision: 0
# Processed by: cddbd v1.5.2PL0 Copyright (c) Steve Scherf et al.
# Submitted via: FreeRIP 2.945 
#
DISCID=cd0bd40f
DTITLE=Kelly Key 100% - Kelly Key 100%
DYEAR=2007
DGENRE=Blues
TTITLE0=Super Poderosa
TTITLE1=sou a Barbie Girl (Barbie Girl)
TTITLE2=Cachorrinho
TTITLE3=Chic, Chic...
TTITLE4=Baba
TTITLE5=Pegue e Puxe
TTITLE6=Anjo
TTITLE7=Você é o Cara
TTITLE8=Adoleta
TTITLE9=É ou Não é Pra Chorar (Por Causa de Você)
TTITLE10=Como Eu Quero
TTITLE11=Quando a Noite Cai
TTITLE12=Analista
TTITLE13=Escondido
TTITLE14=Papinho
EXTD=
EXTT0=
EXTT1=
EXTT2=
EXTT3=
EXTT4=
EXTT5=
EXTT6=
EXTT7=
EXTT8=
EXTT9=
EXTT10=
EXTT11=
EXTT12=
EXTT13=
EXTT14=
PLAYORDER=
